<svg xmlns="http://www.w3.org/2000/svg" viewBox="0 0 100 100" width="100" height="100">
  <defs>
    <filter id="glow" x="-20%" y="-20%" width="140%" height="140%">
      <feGaussianBlur stdDeviation="2" result="blur" />
      <feComposite in="SourceGraphic" in2="blur" operator="over" />
    </filter>
  </defs>
  <!-- Main skeleton in blue/cyan -->
  <path d="M 50 10 L 50 90 M 10 50 L 90 50 M 22 22 L 78 78 M 22 78 L 78 22" stroke="#0ea5e9" stroke-width="4.5" stroke-linecap="round" filter="url(#glow)" />
  <path d="M 50 10 L 50 90 M 10 50 L 90 50 M 22 22 L 78 78 M 22 78 L 78 22" stroke="#e0f2fe" stroke-width="2" stroke-linecap="round" />
  <!-- Branch details -->
  <path d="M 50 22 L 40 12 M 50 22 L 60 12 M 50 78 L 40 88 M 50 78 L 60 88" stroke="#0ea5e9" stroke-width="3.5" stroke-linecap="round" />
  <path d="M 50 22 L 40 12 M 50 22 L 60 12 M 50 78 L 40 88 M 50 78 L 60 88" stroke="#ffffff" stroke-width="1.5" stroke-linecap="round" />
  
  <path d="M 22 50 L 12 40 M 22 50 L 12 60 M 78 50 L 88 40 M 78 50 L 88 60" stroke="#0ea5e9" stroke-width="3.5" stroke-linecap="round" />
  <path d="M 22 50 L 12 40 M 22 50 L 12 60 M 78 50 L 88 40 M 78 50 L 88 60" stroke="#ffffff" stroke-width="1.5" stroke-linecap="round" />
  <!-- Diagonal branch details -->
  <path d="M 30 30 L 20 30 M 30 30 L 30 20 M 70 70 L 80 70 M 70 70 L 70 80" stroke="#0ea5e9" stroke-width="3.5" stroke-linecap="round" />
  <path d="M 30 30 L 20 30 M 30 30 L 30 20 M 70 70 L 80 70 M 70 70 L 70 80" stroke="#ffffff" stroke-width="1.5" stroke-linecap="round" />
  
  <path d="M 30 70 L 20 70 M 30 70 L 30 80 M 70 30 L 80 30 M 70 30 L 70 20" stroke="#0ea5e9" stroke-width="3.5" stroke-linecap="round" />
  <path d="M 30 70 L 20 70 M 30 70 L 30 80 M 70 30 L 80 30 M 70 30 L 70 20" stroke="#ffffff" stroke-width="1.5" stroke-linecap="round" />
  <!-- Center circle -->
  <circle cx="50" cy="50" r="5" fill="#ffffff" stroke="#0ea5e9" stroke-width="3" />
</svg>
